<?xml version="1.0" encoding="utf-8"?>
<!-- Generator: Adobe Illustrator 26.5.0, SVG Export Plug-In . SVG Version: 6.00 Build 0)  -->
<svg version="1.1" id="Camada_1" xmlns="http://www.w3.org/2000/svg" xmlns:xlink="http://www.w3.org/1999/xlink" x="0px" y="0px"
	 viewBox="0 0 458 97" style="enable-background:new 0 0 458 97;" xml:space="preserve">
<style type="text/css">
	.st0{fill:#FFFFFF;}
	.st1{opacity:0.9;fill:#FFFFFF;enable-background:new    ;}
	.st2{opacity:0.6;fill:#FFFFFF;enable-background:new    ;}
	.st3{opacity:0.8;fill:#FFFFFF;enable-background:new    ;}
</style>
<g>
	<g>
		<g>
			<g>
				<polygon class="st0" points="185.2,4.2 159.7,4.2 131.7,43 131.7,4.2 109.7,4.2 109.7,91.6 131.7,91.6 131.7,62 136,56.1 
					159.8,91.6 186.4,91.6 153.9,44.7 				"/>
				<polygon class="st0" points="222.5,4.2 200.4,4.2 200.4,91.6 259.2,91.6 259.2,91.6 259.2,91.5 259.2,74.9 259.2,71.9 
					222.5,71.9 				"/>
				<polygon class="st0" points="409.1,4.6 409.1,54.7 379.3,4.6 350.6,4.6 350.6,92.1 372,92.1 372,31.1 407.9,92.1 430.4,92.1 
					430.4,4.6 				"/>
				<path class="st0" d="M319.9,43l-12.1-4.5c-8.3-3-14.5-4.9-14.5-10.2c0-4.9,4.7-7.8,12.1-7.8c7.4,0,13.4,2.4,19.7,6.8L335.9,15
					c-8.1-7.4-19.6-11.3-30.5-11.3c-19.7,0-33.7,11.4-33.7,25.7c0,12.6,9.3,19.9,19.1,23.5l12.3,4.8c8.3,3.1,13.7,4.8,13.7,10.3
					c0,5.1-4.4,8.3-13.3,8.3c-7.8,0-16.6-3.7-23.3-9l-12.3,13.4c9.6,8.2,22.8,12.5,35.1,12.5c22.6,0,35.7-12.4,35.7-26.8
					C338.7,54.3,331.4,47.3,319.9,43L319.9,43z"/>
			</g>
			<path class="st0" d="M446.2,4.9c2.1,0,3.9,0.8,5.4,2.2c1.5,1.5,2.2,3.2,2.2,5.3s-0.8,3.9-2.2,5.4c-1.5,1.5-3.2,2.2-5.4,2.2
				c-2.2,0-3.9-0.8-5.4-2.2c-1.5-1.5-2.2-3.3-2.2-5.4s0.7-3.9,2.2-5.3C442.3,5.6,444.1,4.9,446.2,4.9z M446.2,18.6
				c1.7,0,3.2-0.6,4.4-1.8c1.2-1.2,1.8-2.7,1.8-4.4s-0.6-3.2-1.8-4.4c-1.2-1.2-2.7-1.8-4.4-1.8c-1.7,0-3.2,0.6-4.4,1.8
				c-1.2,1.2-1.8,2.7-1.8,4.4c0,1.7,0.6,3.2,1.8,4.4C443.1,18,444.5,18.6,446.2,18.6z M450.1,16.4h-1.8l-2.1-3.2h-1v3.2h-1.6V8.3
				h2.5c0.8,0,1.6,0.2,2.1,0.7c0.6,0.4,0.8,1,0.8,1.7c0,1-0.5,1.7-1.6,2.2L450.1,16.4L450.1,16.4z M445.2,11.9h0.8
				c1,0,1.6-0.4,1.6-1.2s-0.5-1.1-1.5-1.1h-0.9V11.9L445.2,11.9L445.2,11.9z"/>
		</g>
		<g>
			<path class="st1" d="M62.9,5.4v14.7h13.5v18.8h10.1V5.5c0-0.8-0.6-1.4-1.4-1.4H64.2C63.5,4.1,62.9,4.7,62.9,5.4L62.9,5.4z"/>
			<path class="st1" d="M35.2,38.9H23.5c-0.7,0-1.3,0.6-1.3,1.3v27.1h13V38.9z"/>
			<path class="st2" d="M62.9,20.2H40.7c-0.8,0-1.4,0.6-1.4,1.4V39h23.6L62.9,20.2C62.9,20.2,62.9,20.2,62.9,20.2z"/>
			<polygon class="st3" points="69.4,38.9 76.4,38.9 76.4,20.1 62.9,20.1 62.9,20.2 62.9,38.9 			"/>
			<path class="st2" d="M35.2,81.5V79h-13V67.3H5.6c-0.8,0-1.4,0.6-1.4,1.4v20.8c0,0.8,0.6,1.4,1.4,1.4h10.2l0,0h19.4V81.5
				L35.2,81.5L35.2,81.5z"/>
			<polygon class="st3" points="35.2,79 35.2,67.3 22.2,67.3 22.2,67.3 22.2,79 			"/>
			<polygon class="st3" points="76.4,56.3 69.4,56.3 62.9,56.3 39.3,56.3 39.3,38.9 35.2,38.9 35.2,67.3 62.9,67.3 69.4,67.3 
				86.4,67.3 86.4,38.9 86.4,38.9 76.4,38.9 			"/>
			<polygon class="st0" points="62.9,56.3 69.4,56.3 76.4,56.3 76.4,38.9 69.4,38.9 62.9,38.9 39.3,38.9 39.3,38.9 39.3,56.3 			"/>
			<path class="st1" d="M69.4,67.3H35.2v23.6h47.3c2.2,0,4-1.8,4-4l0,0V67.3H69.4z"/>
		</g>
	</g>
</g>
</svg>
