<?xml version="1.0" encoding="utf-8"?>
<!-- Generator: Adobe Illustrator 27.4.0, SVG Export Plug-In . SVG Version: 6.00 Build 0)  -->
<svg version="1.1" id="Camada_1" xmlns="http://www.w3.org/2000/svg" xmlns:xlink="http://www.w3.org/1999/xlink" x="0px" y="0px"
	 viewBox="0 0 1440 331.7" style="enable-background:new 0 0 1440 331.7;" xml:space="preserve">
<style type="text/css">
	.st0{opacity:0.1;}
	.st1{fill:none;stroke:#89D2E6;stroke-width:3;}
	.st2{fill:#232A3B;stroke:#89D2E6;stroke-width:3;}
</style>
<g class="st0">
	<path class="st1" d="M0,85.8c55.8,40.2,225.3,105.8,466.8,87.4c259.9-19.8,642.3-7.1,773.2,27.2c97.6,25.6,190.8,65.3,199.9,67.4"
		/>
	<path class="st2" d="M131.5,141.3c0,5-4,9-9,9c-5,0-9-4-9-9s4-9,9-9C127.5,132.3,131.5,136.3,131.5,141.3z"/>
	<path class="st2" d="M442.5,176.3c0,5-4,9-9,9c-5,0-9-4-9-9s4-9,9-9C438.5,167.3,442.5,171.3,442.5,176.3z"/>
	<path class="st2" d="M848.5,166.3c0,5-4,9-9,9c-5,0-9-4-9-9s4-9,9-9C844.5,157.3,848.5,161.3,848.5,166.3z"/>
	<path class="st2" d="M1258.5,203.3c0,5-4,9-9,9c-5,0-9-4-9-9c0-5,4-9,9-9C1254.5,194.3,1258.5,198.3,1258.5,203.3z"/>
</g>
</svg>
