<svg width="1440" height="186" viewBox="0 0 1440 186" fill="none" xmlns="http://www.w3.org/2000/svg">
<g opacity="0.3">
<path d="M1440 2C1384.19 42.1698 1214.65 107.821 973.162 89.4465C713.252 69.6706 330.885 82.3396 199.931 116.638C102.283 142.214 9.16345 181.94 -3.43621e-05 184" stroke="#89D2E6" stroke-width="3"/>
<path d="M1308.5 57.5C1308.5 62.4711 1312.53 66.5 1317.5 66.5C1322.46 66.5 1326.49 62.4711 1326.49 57.5C1326.49 52.5289 1322.46 48.5 1317.5 48.5C1312.53 48.5 1308.5 52.5289 1308.5 57.5Z" fill="#232A3B" stroke="#89D2E6" stroke-width="3"/>
<path d="M997.5 92.5C997.5 97.4711 1001.53 101.5 1006.5 101.5C1011.46 101.5 1015.49 97.4711 1015.49 92.5C1015.49 87.5289 1011.46 83.5 1006.5 83.5C1001.53 83.5 997.5 87.5289 997.5 92.5Z" fill="#232A3B" stroke="#89D2E6" stroke-width="3"/>
<path d="M591.5 82.5C591.5 87.4711 595.528 91.5 600.496 91.5C605.464 91.5 609.493 87.4711 609.493 82.5C609.493 77.5289 605.464 73.5 600.496 73.5C595.528 73.5 591.5 77.5289 591.5 82.5Z" fill="#232A3B" stroke="#89D2E6" stroke-width="3"/>
<path d="M181.5 119.5C181.5 124.471 185.528 128.5 190.496 128.5C195.464 128.5 199.493 124.471 199.493 119.5C199.493 114.529 195.464 110.5 190.496 110.5C185.528 110.5 181.5 114.529 181.5 119.5Z" fill="#232A3B" stroke="#89D2E6" stroke-width="3"/>
</g>
</svg>
