<svg width="275" height="50" viewBox="0 0 275 50" fill="none" xmlns="http://www.w3.org/2000/svg">
<path d="M77.7669 2.89142C78.1389 2.89142 78.3278 3.07142 78.3278 3.4257V5.80856C78.3278 6.18285 78.1418 6.36856 77.7669 6.36856H70.1178V19.38C70.1178 19.7371 69.9404 19.9143 69.5827 19.9143H66.9272C66.5695 19.9143 66.392 19.7371 66.392 19.38V6.36856H58.743C58.3681 6.36856 58.1821 6.18285 58.1821 5.80856V3.42856C58.1821 3.07142 58.3681 2.89428 58.743 2.89428H77.7669V2.89142Z" fill="white"/>
<path d="M96.9597 2.89142C98.8283 2.89142 100.168 3.31428 100.98 4.15713C101.793 4.99999 102.199 6.24856 102.199 7.90285V9.28856C102.199 10.6828 101.916 11.7857 101.347 12.5971C100.777 13.4086 99.8527 13.9257 98.5708 14.1543L102.737 19.3114C102.817 19.3914 102.843 19.5143 102.809 19.6771C102.777 19.84 102.646 19.92 102.42 19.92H99.2776C99.0658 19.92 98.9199 19.8971 98.8397 19.8457C98.7596 19.7971 98.6766 19.7171 98.5965 19.6028L94.7477 14.5428H86.8782V19.3828C86.8782 19.74 86.7008 19.9171 86.3431 19.9171H83.7133C83.3384 19.9171 83.1524 19.74 83.1524 19.3828V3.62285C83.1524 3.13713 83.3957 2.89428 83.8821 2.89428H96.9625L96.9597 2.89142ZM86.8754 11.5743H96.2042C97.0312 11.5743 97.6178 11.3971 97.9584 11.04C98.2989 10.6828 98.4706 10.14 98.4706 9.41142V8.38856C98.4706 7.65999 98.2989 7.11713 97.9584 6.75999C97.6178 6.40285 97.0341 6.2257 96.2042 6.2257H87.1902C86.9784 6.2257 86.8725 6.32285 86.8725 6.51713V11.5771L86.8754 11.5743Z" fill="white"/>
<path d="M111.042 2.89142C111.399 2.89142 111.577 3.07142 111.577 3.4257V19.38C111.577 19.7371 111.399 19.9143 111.042 19.9143H108.412C108.037 19.9143 107.851 19.7371 107.851 19.38V3.42856C107.851 3.07142 108.037 2.89428 108.412 2.89428H111.042V2.89142Z" fill="white"/>
<path d="M120.614 2.89142C120.971 2.89142 121.149 3.07142 121.149 3.4257V13.1314C121.149 13.78 121.2 14.32 121.306 14.7486C121.412 15.1771 121.587 15.52 121.83 15.7714C122.073 16.0228 122.402 16.2 122.817 16.3057C123.232 16.4114 123.756 16.4628 124.388 16.4628H134.255C134.613 16.4628 134.79 16.6428 134.79 16.9971V19.38C134.79 19.7371 134.613 19.9143 134.255 19.9143H124.242C123.009 19.9143 121.962 19.8 121.1 19.5743C120.239 19.3486 119.538 18.9771 118.994 18.4686C118.45 17.9571 118.053 17.2943 117.801 16.4743C117.549 15.6543 117.423 14.6628 117.423 13.4943V3.42856C117.423 3.07142 117.609 2.89428 117.984 2.89428H120.614V2.89142Z" fill="white"/>
<path d="M142.828 2.89142C143.186 2.89142 143.363 3.07142 143.363 3.4257V9.74856H154.764V3.42856C154.764 3.07142 154.941 2.89428 155.299 2.89428H157.929C158.301 2.89428 158.49 3.07428 158.49 3.42856V19.3828C158.49 19.74 158.304 19.9171 157.929 19.9171H155.299C154.941 19.9171 154.764 19.74 154.764 19.3828V12.9143H143.363V19.3828C143.363 19.74 143.186 19.9171 142.828 19.9171H140.198C139.824 19.9171 139.638 19.74 139.638 19.3828V3.42856C139.638 3.07142 139.824 2.89428 140.198 2.89428H142.828V2.89142Z" fill="white"/>
<path d="M175.179 2.89142C175.797 2.89142 176.315 3.01713 176.738 3.26856C177.162 3.51999 177.574 4.01142 177.98 4.73999L186.044 19.3571C186.124 19.52 186.144 19.6543 186.104 19.7571C186.064 19.8628 185.947 19.9143 185.752 19.9143H182.659C182.381 19.9143 182.195 19.8086 182.098 19.5971L180.37 16.46H168.92L167.241 19.5971C167.126 19.8086 166.94 19.9143 166.68 19.9143H163.512C163.3 19.9143 163.174 19.8628 163.134 19.7571C163.094 19.6514 163.114 19.5171 163.194 19.3571L171.184 4.73999C171.59 4.01142 171.988 3.51999 172.377 3.26856C172.766 3.01713 173.221 2.89142 173.742 2.89142H175.179ZM170.454 13.6428H178.833L174.958 6.51713C174.893 6.40285 174.804 6.3457 174.689 6.3457H174.543C174.429 6.3457 174.34 6.40285 174.274 6.51713L170.451 13.6428H170.454Z" fill="white"/>
<path d="M207.698 2.89142C208.056 2.89142 208.233 3.07142 208.233 3.4257V5.73713C208.233 6.09428 208.056 6.27142 207.698 6.27142H195.493C195.021 6.27142 194.689 6.39428 194.495 6.63713C194.3 6.87999 194.203 7.21428 194.203 7.63428V8.45999C194.203 9.36856 194.623 9.82285 195.47 9.82285H204.605C206.018 9.82285 207.08 10.1828 207.795 10.9057C208.511 11.6286 208.868 12.66 208.868 14.0057V15.9514C208.868 17.1343 208.519 18.0914 207.821 18.82C207.123 19.5486 206.035 19.9143 204.556 19.9143H191.061C190.686 19.9143 190.5 19.7371 190.5 19.38V17.0686C190.5 16.7114 190.686 16.5343 191.061 16.5343H203.849C204.321 16.5343 204.653 16.4114 204.848 16.1686C205.042 15.9257 205.14 15.5943 205.14 15.1714V14.1743C205.14 13.2657 204.716 12.8114 203.872 12.8114H194.738C193.324 12.8114 192.263 12.4514 191.547 11.7286C190.832 11.0086 190.474 9.97428 190.474 8.62856V6.85428C190.474 5.67142 190.823 4.71428 191.521 3.9857C192.22 3.25713 193.307 2.89142 194.786 2.89142H207.698Z" fill="white"/>
<path d="M237.244 2.89142C238.56 2.89142 239.688 3.0257 240.629 3.29142C241.571 3.55999 242.343 3.97142 242.944 4.53142C243.545 5.09142 243.989 5.8057 244.272 6.67142C244.555 7.53999 244.699 8.5657 244.699 9.74856V13.0571C244.699 14.24 244.555 15.2657 244.272 16.1343C243.989 17.0028 243.545 17.7143 242.944 18.2743C242.343 18.8343 241.571 19.2486 240.629 19.5143C239.688 19.7828 238.558 19.9143 237.244 19.9143H225.843C225.357 19.9143 225.114 19.6714 225.114 19.1857V3.62285C225.114 3.13713 225.357 2.89428 225.843 2.89428H237.244V2.89142ZM228.84 16.22C228.84 16.4314 228.945 16.5371 229.157 16.5371H237.147C237.862 16.5371 238.463 16.4714 238.95 16.3428C239.436 16.2143 239.831 16.0028 240.131 15.7114C240.432 15.42 240.646 15.0314 240.778 14.5428C240.907 14.0571 240.973 13.4571 240.973 12.7428V10.0686C240.973 9.35428 240.907 8.75428 240.778 8.26856C240.646 7.78285 240.432 7.39428 240.131 7.09999C239.831 6.80856 239.436 6.59713 238.95 6.46856C238.463 6.33999 237.862 6.27428 237.147 6.27428H229.157C228.945 6.27428 228.84 6.38856 228.84 6.61428V16.22Z" fill="white"/>
<path d="M260.24 2.89142C260.858 2.89142 261.376 3.01713 261.799 3.26856C262.223 3.51999 262.635 4.01142 263.041 4.73999L271.105 19.3571C271.185 19.52 271.206 19.6543 271.165 19.7571C271.125 19.8628 271.008 19.9143 270.813 19.9143H267.72C267.443 19.9143 267.256 19.8086 267.159 19.5971L265.431 16.46H253.982L252.302 19.5971C252.187 19.8086 252.001 19.9143 251.741 19.9143H248.573C248.361 19.9143 248.235 19.8628 248.195 19.7571C248.155 19.6514 248.175 19.5171 248.255 19.3571L256.245 4.73999C256.651 4.01142 257.049 3.51999 257.438 3.26856C257.828 3.01713 258.283 2.89142 258.803 2.89142H260.24ZM255.515 13.6428H263.894L260.02 6.51713C259.954 6.40285 259.865 6.3457 259.751 6.3457H259.605C259.49 6.3457 259.401 6.40285 259.336 6.51713L255.512 13.6428H255.515Z" fill="white"/>
<path d="M73.0195 27.3827C73.7263 27.3827 74.3244 27.5256 74.808 27.8142C75.2916 28.1027 75.7667 28.6656 76.2331 29.5027L85.4847 46.2713C85.5791 46.457 85.602 46.6113 85.5533 46.7313C85.5075 46.8513 85.373 46.9113 85.147 46.9113H81.5986C81.281 46.9113 81.0663 46.7913 80.9547 46.5484L78.9716 42.9484H65.8369L63.9082 46.5484C63.7765 46.7913 63.5619 46.9113 63.2643 46.9113H59.6301C59.3868 46.9113 59.2438 46.8513 59.198 46.7313C59.1522 46.6113 59.1751 46.457 59.2667 46.2713L68.4324 29.5027C68.8988 28.6656 69.3538 28.1027 69.8031 27.8142C70.2495 27.5256 70.7703 27.3827 71.3684 27.3827H73.0167H73.0195ZM67.5968 39.717H77.2089L72.7648 31.5427C72.6904 31.4142 72.5874 31.3484 72.4558 31.3484H72.2869C72.1553 31.3484 72.0552 31.4142 71.9808 31.5427L67.5939 39.717H67.5968Z" fill="white"/>
<path d="M101.776 27.3828C103.284 27.3828 104.58 27.5371 105.662 27.8428C106.741 28.1486 107.628 28.6229 108.317 29.2657C109.007 29.9086 109.514 30.7257 109.84 31.72C110.166 32.7143 110.329 33.8914 110.329 35.2486V39.0428C110.329 40.4 110.166 41.5771 109.84 42.5714C109.514 43.5657 109.007 44.3857 108.317 45.0257C107.628 45.6686 106.744 46.1429 105.662 46.4486C104.58 46.7543 103.287 46.9086 101.776 46.9086H88.6954C88.1374 46.9086 87.8569 46.6286 87.8569 46.0714V28.2143C87.8569 27.6571 88.1374 27.3771 88.6954 27.3771H101.776V27.3828ZM92.135 42.6743C92.135 42.9171 92.2552 43.0371 92.4985 43.0371H101.664C102.483 43.0371 103.172 42.9629 103.733 42.8143C104.291 42.6657 104.743 42.4229 105.09 42.0886C105.433 41.7543 105.682 41.3086 105.831 40.7486C105.979 40.1914 106.054 39.5029 106.054 38.6829V35.6143C106.054 34.7971 105.979 34.1086 105.831 33.5486C105.682 32.9914 105.436 32.5429 105.09 32.2086C104.743 31.8743 104.294 31.6314 103.733 31.4829C103.175 31.3343 102.485 31.26 101.664 31.26H92.4985C92.2552 31.26 92.135 31.3914 92.135 31.6514V42.6743Z" fill="white"/>
<path d="M115.245 27.3828C115.431 27.3828 115.566 27.4114 115.652 27.4657C115.738 27.52 115.815 27.6143 115.889 27.7457L124.076 42.7571C124.133 42.8886 124.245 42.9514 124.411 42.9514H124.551C124.683 42.9514 124.783 42.8857 124.86 42.7571L132.936 27.7457C133.047 27.5028 133.262 27.3828 133.58 27.3828H137.24C137.463 27.3828 137.597 27.4428 137.646 27.5628C137.692 27.6828 137.669 27.8371 137.577 28.0228L128.412 44.7914C127.945 45.6486 127.49 46.2143 127.041 46.4943C126.592 46.7743 126.071 46.9114 125.476 46.9114H123.853C123.126 46.9114 122.525 46.7714 122.05 46.4943C121.575 46.2171 121.103 45.6486 120.639 44.7914L111.362 28.0228C111.268 27.8371 111.245 27.6828 111.293 27.5628C111.339 27.4428 111.485 27.3828 111.726 27.3828H115.248H115.245Z" fill="white"/>
<path d="M155.07 27.3828C156.487 27.3828 157.691 27.5171 158.69 27.7886C159.686 28.0571 160.496 28.4857 161.123 29.0714C161.746 29.6571 162.198 30.4143 162.479 31.3457C162.759 32.2771 162.897 33.4114 162.897 34.7514V39.5514C162.897 40.8914 162.757 42.0314 162.479 42.9686C162.198 43.9086 161.746 44.6714 161.123 45.2571C160.499 45.8428 159.689 46.2657 158.69 46.5257C157.694 46.7857 156.487 46.9171 155.07 46.9171H146.434C145.017 46.9171 143.816 46.7886 142.828 46.5257C141.841 46.2657 141.034 45.8428 140.41 45.2571C139.786 44.6714 139.329 43.9086 139.04 42.9686C138.751 42.0286 138.607 40.8886 138.607 39.5514V34.7514C138.607 33.4114 138.751 32.2771 139.04 31.3457C139.329 30.4171 139.784 29.6571 140.41 29.0714C141.034 28.4857 141.841 28.0571 142.828 27.7886C143.816 27.52 145.017 27.3828 146.434 27.3828H155.07ZM142.886 39.2428C142.886 39.9686 142.946 40.5771 143.066 41.0714C143.186 41.5657 143.386 41.9543 143.667 42.2428C143.947 42.5314 144.322 42.7371 144.8 42.8571C145.275 42.9771 145.876 43.0371 146.603 43.0371H154.901C155.628 43.0371 156.229 42.9771 156.704 42.8571C157.179 42.7371 157.557 42.5314 157.837 42.2428C158.118 41.9543 158.315 41.5628 158.438 41.0714C158.559 40.58 158.619 39.9686 158.619 39.2428V35.0571C158.619 34.3314 158.559 33.7228 158.438 33.2286C158.318 32.7371 158.118 32.3457 157.837 32.0571C157.557 31.7686 157.182 31.5657 156.704 31.4428C156.229 31.3228 155.628 31.2628 154.901 31.2628H146.603C145.876 31.2628 145.275 31.3228 144.8 31.4428C144.325 31.5628 143.947 31.7686 143.667 32.0571C143.386 32.3457 143.186 32.7371 143.066 33.2286C142.946 33.7228 142.886 34.3314 142.886 35.0571V39.2428Z" fill="white"/>
<path d="M186.565 27.3829C186.974 27.3829 187.18 27.5886 187.18 27.9971V30.7314C187.18 31.16 186.974 31.3743 186.565 31.3743H174.129C173.402 31.3743 172.801 31.4343 172.326 31.5543C171.851 31.6743 171.473 31.88 171.193 32.1686C170.912 32.4571 170.712 32.8429 170.592 33.3257C170.471 33.8086 170.411 34.4229 170.411 35.1686V39.1314C170.411 39.8743 170.471 40.4943 170.592 40.9857C170.712 41.48 170.912 41.8686 171.193 42.1571C171.473 42.4457 171.848 42.6514 172.326 42.7714C172.801 42.8914 173.402 42.9514 174.129 42.9514H186.565C186.974 42.9514 187.18 43.1571 187.18 43.5657V46.3C187.18 46.7086 186.974 46.9143 186.565 46.9143H173.963C172.546 46.9143 171.344 46.7857 170.357 46.5229C169.37 46.2629 168.563 45.84 167.939 45.2543C167.315 44.6686 166.857 43.9057 166.568 42.9657C166.279 42.0257 166.136 40.8857 166.136 39.5486V34.7486C166.136 33.4086 166.279 32.2743 166.568 31.3429C166.857 30.4143 167.312 29.6543 167.939 29.0686C168.563 28.4829 169.37 28.0543 170.357 27.7857C171.344 27.5171 172.546 27.38 173.963 27.38H186.565V27.3829Z" fill="white"/>
<path d="M202.579 27.3828C203.285 27.3828 203.883 27.5257 204.367 27.8143C204.851 28.1028 205.326 28.6657 205.792 29.5028L215.044 46.2714C215.138 46.4571 215.161 46.6114 215.112 46.7314C215.067 46.8514 214.932 46.9114 214.706 46.9114H211.158C210.84 46.9114 210.625 46.7914 210.514 46.5486L208.531 42.9486H195.396L193.467 46.5486C193.336 46.7914 193.121 46.9114 192.823 46.9114H189.189C188.946 46.9114 188.803 46.8514 188.757 46.7314C188.711 46.6114 188.734 46.4571 188.826 46.2714L197.991 29.5028C198.458 28.6657 198.913 28.1028 199.362 27.8143C199.809 27.5257 200.329 27.3828 200.927 27.3828H202.576H202.579ZM197.156 39.7171H206.768L202.324 31.5428C202.249 31.4143 202.146 31.3486 202.015 31.3486H201.846C201.714 31.3486 201.614 31.4143 201.54 31.5428L197.153 39.7171H197.156Z" fill="white"/>
<path d="M236.506 27.3829C236.915 27.3829 237.121 27.5886 237.121 27.9971V30.7314C237.121 31.16 236.915 31.3743 236.506 31.3743H224.069C223.342 31.3743 222.741 31.4343 222.266 31.5543C221.791 31.6743 221.414 31.88 221.133 32.1686C220.853 32.4571 220.652 32.8429 220.532 33.3257C220.412 33.8086 220.352 34.4229 220.352 35.1686V39.1314C220.352 39.8743 220.412 40.4943 220.532 40.9857C220.652 41.48 220.853 41.8686 221.133 42.1571C221.414 42.4457 221.788 42.6514 222.266 42.7714C222.741 42.8914 223.342 42.9514 224.069 42.9514H236.506C236.915 42.9514 237.121 43.1571 237.121 43.5657V46.3C237.121 46.7086 236.915 46.9143 236.506 46.9143H223.903C222.487 46.9143 221.285 46.7857 220.298 46.5229C219.31 46.2629 218.503 45.84 217.88 45.2543C217.256 44.6686 216.798 43.9057 216.509 42.9657C216.22 42.0257 216.077 40.8857 216.077 39.5486V34.7486C216.077 33.4086 216.22 32.2743 216.509 31.3429C216.798 30.4143 217.253 29.6543 217.88 29.0686C218.503 28.4829 219.31 28.0543 220.298 27.7857C221.285 27.5171 222.487 27.38 223.903 27.38H236.506V27.3829Z" fill="white"/>
<path d="M243.771 27.3828C244.181 27.3828 244.387 27.5886 244.387 27.9971V46.3028C244.387 46.7114 244.181 46.9171 243.771 46.9171H240.752C240.323 46.9171 240.108 46.7114 240.108 46.3028V27.9971C240.108 27.5886 240.323 27.3828 240.752 27.3828H243.771Z" fill="white"/>
<path d="M260.512 27.3828C261.219 27.3828 261.817 27.5257 262.3 27.8143C262.784 28.1028 263.259 28.6657 263.725 29.5028L272.977 46.2714C273.071 46.4571 273.094 46.6114 273.046 46.7314C273 46.8514 272.865 46.9114 272.639 46.9114H269.091C268.773 46.9114 268.559 46.7914 268.447 46.5486L266.464 42.9486H253.329L251.4 46.5486C251.269 46.7914 251.054 46.9114 250.757 46.9114H247.122C246.879 46.9114 246.736 46.8514 246.69 46.7314C246.644 46.6114 246.667 46.4571 246.759 46.2714L255.925 29.5028C256.391 28.6657 256.846 28.1028 257.295 27.8143C257.742 27.5257 258.262 27.3828 258.861 27.3828H260.509H260.512ZM255.089 39.7171H264.701L260.257 31.5428C260.183 31.4143 260.08 31.3486 259.948 31.3486H259.779C259.648 31.3486 259.547 31.4143 259.473 31.5428L255.086 39.7171H255.089Z" fill="white"/>
<path d="M42.0055 10.5857C39.802 10.5857 37.9563 12.0914 37.4298 14.1286H31.3632C31.2973 14.1286 31.2287 14.1286 31.1628 14.1286C29.2599 14.1829 27.7604 15.7686 27.8176 17.6714V37.24C27.7118 37.1429 27.6001 37.0343 27.4714 36.9086C26.9391 36.2657 26.2352 35.8086 25.4539 35.5714V10.4314C27.4943 9.90573 29.0023 8.06287 29.0023 5.86287C29.0023 3.2543 26.8847 1.14001 24.2721 1.14001C21.6595 1.14001 19.5419 3.2543 19.5419 5.86287C19.5419 8.06287 21.0499 9.90573 23.0903 10.4314V35.5686C22.309 35.8057 21.6022 36.2629 21.0728 36.9057C20.9441 37.0343 20.8325 37.1429 20.7266 37.2372V17.6714C20.7266 17.6057 20.7266 17.5372 20.7266 17.4714C20.6722 15.5714 19.084 14.0743 17.1782 14.1314H11.1116C10.5851 12.0943 8.73933 10.5886 6.53589 10.5886C3.92325 10.5886 1.80566 12.7029 1.80566 15.3114C1.80566 17.92 3.92325 20.0343 6.53589 20.0343C8.73933 20.0343 10.5851 18.5286 11.1116 16.4914H17.1782C17.2497 16.4857 17.3184 16.4857 17.3899 16.4914C17.9852 16.5486 18.4201 17.0772 18.36 17.6714V37.7429C18.36 37.9257 18.403 38.1057 18.4831 38.2714L23.2133 47.7172C23.3192 47.8914 23.4651 48.04 23.6397 48.1429C24.2235 48.4914 24.9818 48.3 25.328 47.7172L30.0583 38.2714C30.1413 38.1086 30.1813 37.9257 30.1813 37.7429V17.6857C30.1727 17.6143 30.1727 17.54 30.1813 17.4657C30.2385 16.8686 30.7679 16.4343 31.366 16.4886H37.4326C37.9591 18.5257 39.8049 20.0314 42.0083 20.0314C44.621 20.0314 46.7385 17.9172 46.7385 15.3086C46.7385 12.7 44.621 10.5857 42.0083 10.5857H42.0055ZM6.53017 17.6714C5.22528 17.6714 4.16649 16.6143 4.16649 15.3114C4.16649 14.0086 5.22528 12.9514 6.53017 12.9514C7.83506 12.9514 8.89385 14.0086 8.89385 15.3114C8.89385 16.6143 7.83506 17.6714 6.53017 17.6714ZM21.9027 5.86287C21.9027 4.56001 22.9615 3.50287 24.2664 3.50287C25.5713 3.50287 26.6301 4.56001 26.6301 5.86287C26.6301 7.16573 25.5713 8.22287 24.2664 8.22287C22.9615 8.22287 21.9027 7.16573 21.9027 5.86287ZM22.7383 38.5743C23.3221 37.9972 23.6025 37.74 24.2664 37.74C24.9303 37.74 25.2164 37.9972 25.7945 38.5743C26.0864 38.9257 26.4298 39.2257 26.8103 39.4629L25.308 42.4629H23.2219L21.7196 39.4629C22.1001 39.2257 22.4435 38.9286 22.7354 38.5743H22.7383ZM42.0055 17.6714C40.7006 17.6714 39.6418 16.6143 39.6418 15.3114C39.6418 14.0086 40.7006 12.9514 42.0055 12.9514C43.3103 12.9514 44.3691 14.0086 44.3691 15.3114C44.3691 16.6143 43.3103 17.6714 42.0055 17.6714Z" fill="#00CFBC"/>
</svg>
